<svg width="50" height="55" viewBox="0 0 50 55" fill="none" xmlns="http://www.w3.org/2000/svg">
<mask id="path-1-inside-1_170_46" fill="white">
<path d="M32.6405 16.3203C32.6405 25.3337 25.3337 32.6405 16.3203 32.6405C7.30683 32.6405 0 25.3337 0 16.3203C0 7.30683 7.30683 0 16.3203 0C25.3337 0 32.6405 7.30683 32.6405 16.3203ZM2.96779 16.3203C2.96779 23.6946 8.94589 29.6727 16.3203 29.6727C23.6946 29.6727 29.6727 23.6946 29.6727 16.3203C29.6727 8.94589 23.6946 2.96779 16.3203 2.96779C8.94589 2.96779 2.96779 8.94589 2.96779 16.3203Z"/>
</mask>
<path d="M32.6405 16.3203C32.6405 25.3337 25.3337 32.6405 16.3203 32.6405C7.30683 32.6405 0 25.3337 0 16.3203C0 7.30683 7.30683 0 16.3203 0C25.3337 0 32.6405 7.30683 32.6405 16.3203ZM2.96779 16.3203C2.96779 23.6946 8.94589 29.6727 16.3203 29.6727C23.6946 29.6727 29.6727 23.6946 29.6727 16.3203C29.6727 8.94589 23.6946 2.96779 16.3203 2.96779C8.94589 2.96779 2.96779 8.94589 2.96779 16.3203Z" fill="#FAF7F7" stroke="#40E0D0" stroke-width="2" mask="url(#path-1-inside-1_170_46)"/>
<rect x="27.36" y="30.3386" width="3.84459" height="29.9427" rx="1.92229" transform="rotate(-39.2893 27.36 30.3386)" fill="#FAF7F7" stroke="#40E0D0"/>
</svg>
