<svg width="41" height="30" viewBox="0 0 41 30" fill="none" xmlns="http://www.w3.org/2000/svg">
<path d="M15.8311 7.13968L15.7182 7.52526L25.2837 12.5751L26.4673 8.17234L15.8311 7.13968Z" fill="#0C9709" stroke="#0C9709" stroke-width="0.3"/>
<path d="M34.8841 2.50631L12.114 15.7018C11.2503 16.2023 10.4677 16.8312 9.79309 17.5669L5.11889 22.6641C5.11733 22.6658 5.11627 22.6679 5.11582 22.6701C5.11413 22.6787 5.12145 22.6863 5.13008 22.685L12.666 21.5118C13.3209 21.4098 13.9511 21.187 14.5246 20.8547L37.7255 7.40952C39.0795 6.62487 39.5411 4.89117 38.7564 3.53718C37.9718 2.1832 36.2381 1.72166 34.8841 2.50631Z" fill="#D9D9D9" stroke="#0C9709" stroke-width="0.3"/>
<path d="M6.88525 12.0891L7.38562 21.4863L13.0171 19.2276L7.85595 11.7247L7.76229 11.7285C7.43664 11.7418 7.1261 11.8695 6.88525 12.0891V12.0891Z" fill="#0C9709"/>
<path d="M29.0903 22.9238L29.4767 22.8138L28.6496 12.0288L24.2936 13.3747L29.0903 22.9238Z" fill="#0C9709" stroke="#0C9709" stroke-width="0.3"/>
<path d="M13.0344 28.6571L13.467 28.4946L12.6533 19.7988L8.11707 21.5886L13.0344 28.6571Z" fill="#0C9709" stroke="#0C9709" stroke-width="0.3"/>
<path d="M2.44361 12.7057L2.17124 13.0145L7.50943 20.4644L10.459 16.9914L2.44361 12.7057Z" fill="#0C9709" stroke="#0C9709" stroke-width="0.3"/>
<rect width="16.4094" height="1.49176" transform="matrix(-0.852191 0.52323 0.52323 0.852191 32.0239 4.86704)" fill="#D9D9D9"/>
<rect width="0.994508" height="0.994508" transform="matrix(-0.852191 0.52323 0.52323 0.852191 31.3893 5.47134)" fill="#100F0F"/>
<rect width="0.994508" height="0.994508" transform="matrix(-0.852191 0.52323 0.52323 0.852191 29.6943 6.51205)" fill="#100F0F"/>
<rect width="0.994508" height="0.994508" transform="matrix(-0.852191 0.52323 0.52323 0.852191 27.9992 7.55276)" fill="#100F0F"/>
<rect width="0.994508" height="0.994508" transform="matrix(-0.852191 0.52323 0.52323 0.852191 26.3042 8.59348)" fill="#100F0F"/>
<rect width="0.994508" height="0.994508" transform="matrix(-0.852191 0.52323 0.52323 0.852191 24.6091 9.63423)" fill="#100F0F"/>
<rect width="0.994508" height="0.994508" transform="matrix(-0.852191 0.52323 0.52323 0.852191 22.9142 10.6749)" fill="#100F0F"/>
<rect width="0.994508" height="0.994508" transform="matrix(-0.852191 0.52323 0.52323 0.852191 21.2192 11.7156)" fill="#100F0F"/>
<rect width="0.994508" height="0.994508" transform="matrix(-0.852191 0.52323 0.52323 0.852191 19.5241 12.7564)" fill="#100F0F"/>
<path d="M35.4 2.99521L34.6979 3.42624L35.2183 4.27375L35.9203 3.84272L35.4 2.99521Z" fill="#100F0F"/>
<path d="M36.2854 2.45445L35.5834 2.88548L36.1038 3.73299L36.8058 3.30196L36.8244 2.69166L36.2854 2.45445Z" fill="#100F0F"/>
</svg>
